<svg width="29" height="29" viewBox="0 0 29 29" fill="none" xmlns="http://www.w3.org/2000/svg">
<path d="M27.9156 11.9394H26.8135V11.8827H14.4988V17.3559H22.2317C21.1036 20.5419 18.0721 22.829 14.4988 22.829C9.96492 22.829 6.28899 19.1531 6.28899 14.6193C6.28899 10.0854 9.96492 6.40947 14.4988 6.40947C16.5916 6.40947 18.4956 7.19898 19.9453 8.4886L23.8155 4.61837C21.3717 2.34084 18.1029 0.936279 14.4988 0.936279C6.94235 0.936279 0.815796 7.06283 0.815796 14.6193C0.815796 22.1757 6.94235 28.3022 14.4988 28.3022C22.0552 28.3022 28.1818 22.1757 28.1818 14.6193C28.1818 13.7018 28.0873 12.8063 27.9156 11.9394Z" fill="#FFC107"/>
<path d="M14.4988 28.3022C18.0332 28.3022 21.2446 26.9496 23.6726 24.7501L19.4377 21.1665C18.0178 22.2464 16.2827 22.8304 14.4988 22.829C10.9399 22.829 7.91801 20.5597 6.77959 17.3928L2.31757 20.8306C4.5821 25.2618 9.18095 28.3022 14.4988 28.3022Z" fill="#4CAF50"/>
<path d="M27.9157 11.9395H26.8135V11.8828H14.4988V17.3559H22.2318C21.6921 18.8723 20.7201 20.1973 19.4357 21.1673L19.4377 21.166L23.6726 24.7495C23.3729 25.0218 28.1818 21.4608 28.1818 14.6193C28.1818 13.7019 28.0874 12.8064 27.9157 11.9395Z" fill="#1976D2"/>
<path d="M2.39337 8.25052L6.88892 11.5474C8.10533 8.53581 11.0513 6.40947 14.4987 6.40947C16.5915 6.40947 18.4955 7.19898 19.9452 8.4886L23.8154 4.61837C21.3717 2.34084 18.1028 0.936279 14.4987 0.936279C9.24307 0.936279 4.68527 3.90343 2.39337 8.25052Z" fill="#FF3D00"/>
</svg>
